SplineFontDB: 3.2
FontName: Untitled1
FullName: Untitled1
FamilyName: Untitled1
Weight: Regular
Copyright: Copyright (c) 2023, neilb
UComments: "2023-1-30: Created with FontForge (http://fontforge.org)"
Version: 001.000
ItalicAngle: 0
UnderlinePosition: -100
UnderlineWidth: 50
Ascent: 800
Descent: 200
InvalidEm: 0
LayerCount: 2
Layer: 0 0 "Back" 1
Layer: 1 0 "Fore" 0
XUID: [1021 913 887202693 23237]
StyleMap: 0x0000
FSType: 0
OS2Version: 0
OS2_WeightWidthSlopeOnly: 0
OS2_UseTypoMetrics: 1
CreationTime: 1675081307
ModificationTime: 1760264613
OS2TypoAscent: 0
OS2TypoAOffset: 1
OS2TypoDescent: 0
OS2TypoDOffset: 1
OS2TypoLinegap: 90
OS2WinAscent: 0
OS2WinAOffset: 1
OS2WinDescent: 0
OS2WinDOffset: 1
HheadAscent: 0
HheadAOffset: 1
HheadDescent: 0
HheadDOffset: 1
OS2Vendor: 'PfEd'
DEI: 91125
Encoding: UnicodeBmp
UnicodeInterp: none
NameList: AGL For New Fonts
DisplaySize: -48
AntiAlias: 1
FitToEm: 1
WinInfo: 464 16 12
BeginChars: 65555 107

StartChar: quarterdot
Encoding: 65536 -1 0
Width: 0
VWidth: 0
Flags: HM
LayerCount: 2
Fore
SplineSet
0 0 m 0
 0 51 l 0
 51 51 l 0
 51 0 l 0
 0 0 l 0
EndSplineSet
EndChar

StartChar: dot
Encoding: 65537 -1 7
Width: 0
VWidth: 0
Flags: HMW
LayerCount: 2
Fore
SplineSet
0 0 m 29
 0 101 l 29
 101 101 l 29
 101 0 l 29
 0 0 l 29
EndSplineSet
EndChar

StartChar: four
Encoding: 52 52 8
Width: 600
VWidth: 0
Flags: HMW
LayerCount: 2
Fore
SplineSet
350 0 m 1
 350 200 l 1
 50 200 l 1
 50 500 l 1
 100 500 l 1
 100 550 l 1
 150 550 l 1
 150 600 l 1
 200 600 l 1
 200 650 l 1
 250 650 l 1
 250 700 l 1
 450 700 l 1
 450 300 l 1
 550 300 l 1
 550 200 l 1
 450 200 l 1
 450 0 l 1
 350 0 l 1
150 300 m 1
 350 300 l 1
 350 600 l 1
 300 600 l 1
 300 550 l 1
 250 550 l 1
 250 500 l 1
 200 500 l 1
 200 450 l 1
 150 450 l 1
 150 300 l 1
EndSplineSet
EndChar

StartChar: triagup
Encoding: 9650 9650 42
Width: 800
Flags: HMW
LayerCount: 2
Fore
SplineSet
50 0 m 1
 50 101 l 1
 100 101 l 1
 100 201 l 1
 150 201 l 1
 150 301 l 1
 200 301 l 1
 200 401 l 1
 250 401 l 1
 250 501 l 1
 300 501 l 1
 300 601 l 1
 350 601 l 1
 350 701 l 1
 451 701 l 1
 451 601 l 1
 501 601 l 1
 501 501 l 1
 551 501 l 1
 551 401 l 1
 601 401 l 1
 601 301 l 1
 651 301 l 1
 651 201 l 1
 701 201 l 1
 701 101 l 1
 751 101 l 1
 751 0 l 1
 50 0 l 1
EndSplineSet
EndChar

StartChar: uni25B6
Encoding: 9654 9654 44
Width: 800
Flags: HMW
LayerCount: 2
Fore
SplineSet
50 701 m 1
 151 701 l 1
 151 651 l 1
 251 651 l 1
 251 601 l 1
 351 601 l 1
 351 551 l 1
 451 551 l 1
 451 501 l 1
 551 501 l 1
 551 451 l 1
 651 451 l 1
 651 401 l 1
 751 401 l 1
 751 300 l 1
 651 300 l 1
 651 250 l 1
 551 250 l 1
 551 200 l 1
 451 200 l 1
 451 150 l 1
 351 150 l 1
 351 100 l 1
 251 100 l 1
 251 50 l 1
 151 50 l 1
 151 0 l 1
 50 0 l 1
 50 701 l 1
EndSplineSet
EndChar

StartChar: triagdn
Encoding: 9660 9660 46
Width: 800
Flags: HMW
LayerCount: 2
Fore
SplineSet
751 701 m 1
 751 600 l 1
 701 600 l 1
 701 500 l 1
 651 500 l 1
 651 400 l 1
 601 400 l 1
 601 300 l 1
 551 300 l 1
 551 200 l 1
 501 200 l 1
 501 100 l 1
 451 100 l 1
 451 0 l 1
 350 0 l 1
 350 100 l 1
 300 100 l 1
 300 200 l 1
 250 200 l 1
 250 300 l 1
 200 300 l 1
 200 400 l 1
 150 400 l 1
 150 500 l 1
 100 500 l 1
 100 600 l 1
 50 600 l 1
 50 701 l 1
 751 701 l 1
EndSplineSet
EndChar

StartChar: uni25C0
Encoding: 9664 9664 47
Width: 800
Flags: HMW
LayerCount: 2
Fore
SplineSet
751 0 m 1
 650 0 l 1
 650 50 l 1
 550 50 l 1
 550 100 l 1
 450 100 l 1
 450 150 l 1
 350 150 l 1
 350 200 l 1
 250 200 l 1
 250 250 l 1
 150 250 l 1
 150 300 l 1
 50 300 l 1
 50 401 l 1
 150 401 l 1
 150 451 l 1
 250 451 l 1
 250 501 l 1
 350 501 l 1
 350 551 l 1
 450 551 l 1
 450 601 l 1
 550 601 l 1
 550 651 l 1
 650 651 l 1
 650 701 l 1
 751 701 l 1
 751 0 l 1
EndSplineSet
EndChar

StartChar: trademark
Encoding: 8482 8482 68
Width: 900
Flags: HMW
LayerCount: 2
Fore
SplineSet
50 600 m 1
 50 700 l 1
 450 700 l 1
 450 600 l 1
 550 600 l 1
 550 550 l 1
 650 550 l 1
 650 600 l 1
 750 600 l 1
 750 700 l 1
 850 700 l 1
 850 300 l 1
 750 300 l 1
 750 500 l 1
 700 500 l 1
 700 450 l 1
 650 450 l 1
 650 400 l 1
 550 400 l 1
 550 450 l 1
 500 450 l 1
 500 500 l 1
 450 500 l 1
 450 300 l 1
 350 300 l 1
 350 600 l 1
 250 600 l 1
 250 300 l 1
 150 300 l 1
 150 600 l 1
 50 600 l 1
EndSplineSet
Refer: 0 -1 S 1 0 0 1 700 600 2
Refer: 0 -1 N 1 0 0 1 450 600 2
EndChar

StartChar: uni2120
Encoding: 8480 8480 69
Width: 900
Flags: HMW
LayerCount: 2
Fore
SplineSet
50 300 m 1
 50 400 l 1
 150 400 l 1
 150 450 l 1
 100 450 l 1
 100 500 l 1
 50 500 l 1
 50 700 l 1
 250 700 l 1
 250 600 l 1
 150 600 l 1
 150 550 l 1
 200 550 l 1
 200 500 l 1
 250 500 l 1
 250 300 l 1
 50 300 l 1
750 300 m 1
 750 500 l 1
 700 500 l 1
 700 450 l 1
 650 450 l 1
 650 400 l 1
 550 400 l 1
 550 450 l 1
 500 450 l 1
 500 500 l 1
 450 500 l 1
 450 300 l 1
 350 300 l 1
 350 700 l 1
 450 700 l 1
 450 600 l 1
 550 600 l 1
 550 550 l 1
 650 550 l 1
 650 600 l 1
 750 600 l 1
 750 700 l 1
 850 700 l 1
 850 300 l 1
 750 300 l 1
EndSplineSet
Refer: 0 -1 N 1 0 0 1 700 600 2
Refer: 0 -1 N 1 0 0 1 450 600 2
EndChar

StartChar: two
Encoding: 50 50 70
Width: 600
VWidth: 0
Flags: HW
LayerCount: 2
Fore
SplineSet
50 500 m 257
 50 600 l 257
 100 600 l 257
 100 650 l 257
 150 650 l 257
 150 700 l 257
 450 700 l 257
 450 650 l 257
 500 650 l 257
 500 600 l 257
 550 600 l 257
 550 400 l 257
 500 400 l 257
 500 350 l 257
 450 350 l 257
 450 300 l 257
 200 300 l 257
 200 250 l 257
 150 250 l 257
 150 100 l 257
 550 100 l 257
 550 0 l 257
 50 0 l 257
 50 300 l 257
 100 300 l 257
 100 350 l 257
 150 350 l 257
 150 400 l 257
 400 400 l 257
 400 450 l 257
 450 450 l 257
 450 550 l 257
 400 550 l 257
 400 600 l 257
 200 600 l 257
 200 550 l 257
 150 550 l 257
 150 500 l 257
 50 500 l 257
EndSplineSet
EndChar

StartChar: two.alt
Encoding: 65547 -1 71
Width: 600
VWidth: 0
Flags: HW
LayerCount: 2
Fore
SplineSet
50 500 m 257
 50 600 l 257
 100 600 l 257
 100 650 l 257
 150 650 l 257
 150 700 l 257
 450 700 l 257
 450 650 l 257
 500 650 l 257
 500 600 l 257
 550 600 l 257
 550 400 l 257
 500 400 l 257
 500 350 l 257
 450 350 l 257
 450 300 l 257
 300 300 l 257
 300 250 l 257
 250 250 l 257
 250 200 l 257
 200 200 l 257
 200 150 l 257
 150 150 l 257
 150 100 l 257
 550 100 l 257
 550 0 l 257
 50 0 l 257
 50 200 l 257
 100 200 l 257
 100 250 l 257
 150 250 l 257
 150 300 l 257
 200 300 l 257
 200 350 l 257
 250 350 l 257
 250 400 l 257
 400 400 l 257
 400 450 l 257
 450 450 l 257
 450 550 l 257
 400 550 l 257
 400 600 l 257
 200 600 l 257
 200 550 l 257
 150 550 l 257
 150 500 l 257
 50 500 l 257
EndSplineSet
EndChar

StartChar: uni058D
Encoding: 1421 1421 77
Width: 800
Flags: HW
LayerCount: 2
Fore
SplineSet
500 0 m 1
 250 0 l 1
 250 50 l 1
 200 50 l 1
 200 100 l 1
 150 100 l 1
 150 200 l 1
 100 200 l 1
 100 250 l 1
 50 250 l 1
 50 500 l 1
 100 500 l 1
 100 550 l 1
 150 550 l 1
 150 600 l 1
 250 600 l 1
 250 650 l 1
 300 650 l 1
 300 700 l 1
 550 700 l 1
 550 650 l 1
 600 650 l 1
 600 600 l 1
 650 600 l 1
 650 500 l 1
 700 500 l 1
 700 450 l 1
 750 450 l 1
 750 200 l 1
 700 200 l 1
 700 150 l 1
 650 150 l 1
 650 100 l 1
 550 100 l 1
 550 50 l 1
 500 50 l 1
 500 0 l 1
550 200 m 1
 600 200 l 1
 600 250 l 1
 650 250 l 1
 650 350 l 1
 600 350 l 1
 600 400 l 1
 500 400 l 1
 500 300 l 1
 550 300 l 1
 550 200 l 1
550 500 m 1
 550 550 l 1
 500 550 l 1
 500 600 l 1
 400 600 l 1
 400 550 l 1
 350 550 l 1
 350 450 l 1
 450 450 l 1
 450 500 l 1
 550 500 l 1
200 300 m 1
 300 300 l 1
 300 400 l 1
 250 400 l 1
 250 500 l 1
 200 500 l 1
 200 450 l 1
 150 450 l 1
 150 350 l 1
 200 350 l 1
 200 300 l 1
450 150 m 1
 450 250 l 1
 350 250 l 1
 350 200 l 1
 250 200 l 1
 250 150 l 1
 300 150 l 1
 300 100 l 1
 400 100 l 1
 400 150 l 1
 450 150 l 1
EndSplineSet
EndChar

StartChar: uni058E
Encoding: 1422 1422 78
Width: 800
Flags: HW
LayerCount: 2
Fore
SplineSet
500 700 m 1
 500 650 l 1
 550 650 l 1
 550 600 l 1
 650 600 l 1
 650 550 l 1
 700 550 l 1
 700 500 l 1
 750 500 l 1
 750 250 l 1
 700 250 l 1
 700 200 l 1
 650 200 l 1
 650 100 l 1
 600 100 l 1
 600 50 l 1
 550 50 l 1
 550 0 l 1
 300 0 l 1
 300 50 l 1
 250 50 l 1
 250 100 l 1
 150 100 l 1
 150 150 l 1
 100 150 l 1
 100 200 l 1
 50 200 l 1
 50 450 l 1
 100 450 l 1
 100 500 l 1
 150 500 l 1
 150 600 l 1
 200 600 l 1
 200 650 l 1
 250 650 l 1
 250 700 l 1
 500 700 l 1
550 500 m 1
 550 400 l 1
 500 400 l 1
 500 300 l 1
 600 300 l 1
 600 350 l 1
 650 350 l 1
 650 450 l 1
 600 450 l 1
 600 500 l 1
 550 500 l 1
550 200 m 1
 450 200 l 1
 450 250 l 1
 350 250 l 1
 350 150 l 1
 400 150 l 1
 400 100 l 1
 500 100 l 1
 500 150 l 1
 550 150 l 1
 550 200 l 1
200 400 m 1
 200 350 l 1
 150 350 l 1
 150 250 l 1
 200 250 l 1
 200 200 l 1
 250 200 l 1
 250 300 l 1
 300 300 l 1
 300 400 l 1
 200 400 l 1
450 550 m 1
 400 550 l 1
 400 600 l 1
 300 600 l 1
 300 550 l 1
 250 550 l 1
 250 500 l 1
 350 500 l 1
 350 450 l 1
 450 450 l 1
 450 550 l 1
EndSplineSet
EndChar

StartChar: za-ar.sc
Encoding: 65549 -1 79
Width: 600
VWidth: 0
Flags: HW
LayerCount: 2
Fore
SplineSet
50 300 m 1
 50 400 l 1
 100 400 l 1
 100 450 l 1
 150 450 l 1
 150 500 l 1
 450 500 l 1
 450 450 l 1
 500 450 l 1
 500 400 l 1
 550 400 l 1
 550 200 l 1
 500 200 l 1
 500 150 l 1
 450 150 l 1
 450 100 l 1
 550 100 l 1
 550 0 l 1
 50 0 l 1
 50 200 l 1
 150 200 l 1
 150 100 l 1
 300 100 l 1
 300 150 l 1
 350 150 l 1
 350 200 l 1
 400 200 l 1
 400 250 l 1
 450 250 l 1
 450 350 l 1
 400 350 l 1
 400 400 l 1
 200 400 l 1
 200 350 l 1
 150 350 l 1
 150 300 l 1
 50 300 l 1
EndSplineSet
EndChar

StartChar: to-ar.sc
Encoding: 65550 -1 80
Width: 700
VWidth: 0
Flags: HW
LayerCount: 2
Fore
SplineSet
250 100 m 1
 250 200 l 1
 300 200 l 1
 300 250 l 1
 350 250 l 1
 350 300 l 1
 450 300 l 1
 450 350 l 1
 400 350 l 1
 400 400 l 1
 200 400 l 1
 200 350 l 1
 150 350 l 1
 150 0 l 1
 50 0 l 1
 50 400 l 1
 100 400 l 1
 100 450 l 1
 150 450 l 1
 150 500 l 1
 450 500 l 1
 450 450 l 1
 500 450 l 1
 500 400 l 1
 550 400 l 1
 550 300 l 1
 650 300 l 1
 650 200 l 1
 550 200 l 1
 550 100 l 1
 500 100 l 1
 500 50 l 1
 450 50 l 1
 450 0 l 1
 350 0 l 1
 350 50 l 1
 300 50 l 1
 300 100 l 1
 250 100 l 1
450 200 m 1
 350 200 l 1
 350 100 l 1
 450 100 l 1
 450 200 l 1
EndSplineSet
EndChar

StartChar: ca-ar.sc
Encoding: 65551 -1 81
Width: 600
VWidth: 0
Flags: HW
LayerCount: 2
Fore
SplineSet
50 100 m 1
 50 200 l 1
 100 200 l 1
 100 250 l 1
 150 250 l 1
 150 300 l 1
 50 300 l 1
 50 500 l 1
 150 500 l 1
 150 400 l 1
 550 400 l 1
 550 300 l 1
 450 300 l 1
 450 250 l 1
 500 250 l 1
 500 200 l 1
 550 200 l 1
 550 100 l 1
 500 100 l 1
 500 50 l 1
 450 50 l 1
 450 0 l 1
 150 0 l 1
 150 50 l 1
 100 50 l 1
 100 100 l 1
 50 100 l 1
200 100 m 1
 400 100 l 1
 400 200 l 1
 350 200 l 1
 350 250 l 1
 250 250 l 1
 250 200 l 1
 200 200 l 1
 200 100 l 1
EndSplineSet
EndChar

StartChar: uni25B3
Encoding: 9651 9651 82
Width: 800
Flags: HW
LayerCount: 2
Fore
SplineSet
200 101 m 1
 601 101 l 1
 601 201 l 1
 551 201 l 1
 551 301 l 1
 501 301 l 1
 501 401 l 1
 451 401 l 1
 451 501 l 1
 350 501 l 1
 350 401 l 1
 300 401 l 1
 300 301 l 1
 250 301 l 1
 250 201 l 1
 200 201 l 1
 200 101 l 1
50 0 m 1
 50 101 l 1
 100 101 l 1
 100 201 l 1
 150 201 l 1
 150 301 l 1
 200 301 l 1
 200 401 l 1
 250 401 l 1
 250 501 l 1
 300 501 l 1
 300 601 l 1
 350 601 l 1
 350 701 l 1
 451 701 l 1
 451 601 l 1
 501 601 l 1
 501 501 l 1
 551 501 l 1
 551 401 l 1
 601 401 l 1
 601 301 l 1
 651 301 l 1
 651 201 l 1
 701 201 l 1
 701 101 l 1
 751 101 l 1
 751 0 l 1
 50 0 l 1
EndSplineSet
EndChar

StartChar: uni25B7
Encoding: 9655 9655 83
Width: 800
Flags: HW
LayerCount: 2
Fore
SplineSet
151 551 m 1
 151 150 l 1
 251 150 l 1
 251 200 l 1
 351 200 l 1
 351 250 l 1
 451 250 l 1
 451 300 l 1
 551 300 l 1
 551 401 l 1
 451 401 l 1
 451 451 l 1
 351 451 l 1
 351 501 l 1
 251 501 l 1
 251 551 l 1
 151 551 l 1
50 701 m 1
 151 701 l 1
 151 651 l 1
 251 651 l 1
 251 601 l 1
 351 601 l 1
 351 551 l 1
 451 551 l 1
 451 501 l 1
 551 501 l 1
 551 451 l 1
 651 451 l 1
 651 401 l 1
 751 401 l 1
 751 300 l 1
 651 300 l 1
 651 250 l 1
 551 250 l 1
 551 200 l 1
 451 200 l 1
 451 150 l 1
 351 150 l 1
 351 100 l 1
 251 100 l 1
 251 50 l 1
 151 50 l 1
 151 0 l 1
 50 0 l 1
 50 701 l 1
EndSplineSet
EndChar

StartChar: uni25BD
Encoding: 9661 9661 84
Width: 800
Flags: HW
LayerCount: 2
Fore
SplineSet
601 600 m 1
 200 600 l 1
 200 500 l 1
 250 500 l 1
 250 400 l 1
 300 400 l 1
 300 300 l 1
 350 300 l 1
 350 200 l 1
 451 200 l 1
 451 300 l 1
 501 300 l 1
 501 400 l 1
 551 400 l 1
 551 500 l 1
 601 500 l 1
 601 600 l 1
751 701 m 1
 751 600 l 1
 701 600 l 1
 701 500 l 1
 651 500 l 1
 651 400 l 1
 601 400 l 1
 601 300 l 1
 551 300 l 1
 551 200 l 1
 501 200 l 1
 501 100 l 1
 451 100 l 1
 451 0 l 1
 350 0 l 1
 350 100 l 1
 300 100 l 1
 300 200 l 1
 250 200 l 1
 250 300 l 1
 200 300 l 1
 200 400 l 1
 150 400 l 1
 150 500 l 1
 100 500 l 1
 100 600 l 1
 50 600 l 1
 50 701 l 1
 751 701 l 1
EndSplineSet
EndChar

StartChar: uni25C1
Encoding: 9665 9665 85
Width: 800
Flags: HW
LayerCount: 2
Fore
SplineSet
650 150 m 1
 650 551 l 1
 550 551 l 1
 550 501 l 1
 450 501 l 1
 450 451 l 1
 350 451 l 1
 350 401 l 1
 250 401 l 1
 250 300 l 1
 350 300 l 1
 350 250 l 1
 450 250 l 1
 450 200 l 1
 550 200 l 1
 550 150 l 1
 650 150 l 1
751 0 m 1
 650 0 l 1
 650 50 l 1
 550 50 l 1
 550 100 l 1
 450 100 l 1
 450 150 l 1
 350 150 l 1
 350 200 l 1
 250 200 l 1
 250 250 l 1
 150 250 l 1
 150 300 l 1
 50 300 l 1
 50 401 l 1
 150 401 l 1
 150 451 l 1
 250 451 l 1
 250 501 l 1
 350 501 l 1
 350 551 l 1
 450 551 l 1
 450 601 l 1
 550 601 l 1
 550 651 l 1
 650 651 l 1
 650 701 l 1
 751 701 l 1
 751 0 l 1
EndSplineSet
EndChar

StartChar: uni10A0
Encoding: 4256 4256 89
Width: 600
Flags: HW
LayerCount: 2
Fore
SplineSet
50 600 m 1
 50 700 l 1
 550 700 l 1
 550 600 l 1
 301 600 l 1
 301 550 l 1
 250 550 l 1
 250 500 l 1
 200 500 l 1
 200 450 l 1
 150 450 l 1
 150 150 l 1
 200 150 l 1
 200 100 l 1
 400 100 l 1
 400 150 l 1
 450 150 l 1
 450 200 l 1
 550 200 l 1
 550 100 l 1
 500 100 l 1
 500 50 l 1
 450 50 l 1
 450 0 l 1
 150 0 l 1
 150 50 l 1
 100 50 l 1
 100 100 l 1
 50 100 l 1
 50 500 l 1
 100 500 l 1
 100 550 l 1
 150 550 l 1
 150 600 l 1
 50 600 l 1
EndSplineSet
EndChar

StartChar: uni10C5
Encoding: 4293 4293 90
Width: 600
Flags: HW
LayerCount: 2
Fore
SplineSet
50 100 m 1
 50 200 l 1
 100 200 l 1
 100 250 l 1
 150 250 l 1
 150 300 l 1
 250 300 l 1
 250 700 l 1
 450 700 l 1
 450 650 l 1
 500 650 l 1
 500 600 l 1
 550 600 l 1
 550 500 l 1
 500 500 l 1
 500 450 l 1
 450 450 l 1
 450 400 l 1
 350 400 l 1
 350 300 l 1
 550 300 l 1
 550 100 l 1
 450 100 l 1
 450 200 l 1
 350 200 l 1
 350 100 l 1
 300 100 l 1
 300 50 l 1
 250 50 l 1
 250 0 l 1
 150 0 l 1
 150 50 l 1
 100 50 l 1
 100 100 l 1
 50 100 l 1
250 200 m 1
 150 200 l 1
 150 100 l 1
 250 100 l 1
 250 200 l 1
350 500 m 1
 450 500 l 1
 450 600 l 1
 350 600 l 1
 350 500 l 1
EndSplineSet
EndChar

StartChar: uni10F2
Encoding: 4338 4338 91
Width: 600
Flags: HW
LayerCount: 2
Fore
SplineSet
50 0 m 1
 50 100 l 1
 150 100 l 1
 150 150 l 1
 100 150 l 1
 100 200 l 1
 50 200 l 1
 50 400 l 1
 100 400 l 1
 100 450 l 1
 150 450 l 1
 150 500 l 1
 450 500 l 1
 450 450 l 1
 500 450 l 1
 500 400 l 1
 550 400 l 1
 550 200 l 1
 500 200 l 1
 500 150 l 1
 450 150 l 1
 450 100 l 1
 550 100 l 1
 550 0 l 1
 50 0 l 1
350 150 m 5
 350 200 l 1
 400 200 l 1
 400 250 l 1
 450 250 l 1
 450 350 l 1
 400 350 l 1
 400 400 l 1
 200 400 l 1
 200 350 l 1
 150 350 l 1
 150 250 l 1
 200 250 l 1
 200 200 l 1
 250 200 l 1
 250 150 l 5
 350 150 l 5
EndSplineSet
EndChar

StartChar: uni10FE
Encoding: 4350 4350 92
Width: 600
Flags: HW
LayerCount: 2
Fore
SplineSet
550 500 m 1
 550 400 l 1
 450 400 l 1
 450 350 l 1
 500 350 l 1
 500 300 l 1
 550 300 l 1
 550 100 l 1
 500 100 l 1
 500 50 l 1
 450 50 l 1
 450 0 l 1
 150 0 l 1
 150 50 l 1
 100 50 l 1
 100 100 l 1
 50 100 l 1
 50 300 l 1
 100 300 l 1
 100 350 l 1
 150 350 l 1
 150 400 l 1
 50 400 l 1
 50 500 l 1
 550 500 l 1
250 350 m 5
 250 300 l 1
 200 300 l 1
 200 250 l 1
 150 250 l 1
 150 150 l 1
 200 150 l 1
 200 100 l 1
 400 100 l 1
 400 150 l 1
 450 150 l 1
 450 250 l 1
 400 250 l 1
 400 300 l 1
 350 300 l 1
 350 350 l 5
 250 350 l 5
EndSplineSet
EndChar

StartChar: uni10FC
Encoding: 4348 4348 93
Width: 400
Flags: HW
LayerCount: 2
Fore
SplineSet
50 300 m 1
 50 700 l 1
 350 700 l 1
 350 600 l 1
 150 600 l 1
 150 500 l 1
 250 500 l 1
 250 450 l 1
 300 450 l 1
 300 400 l 1
 350 400 l 1
 350 300 l 1
 300 300 l 1
 300 250 l 1
 250 250 l 1
 250 200 l 1
 150 200 l 1
 150 250 l 1
 100 250 l 1
 100 300 l 1
 50 300 l 1
150 400 m 1
 150 300 l 1
 250 300 l 1
 250 400 l 1
 150 400 l 1
EndSplineSet
EndChar

StartChar: uni1CAD
Encoding: 7341 7341 94
Width: 600
Flags: HW
LayerCount: 2
Fore
SplineSet
250 400 m 1
 250 500 l 1
 150 500 l 1
 150 400 l 1
 250 400 l 1
50 100 m 1
 50 200 l 1
 150 200 l 1
 150 150 l 1
 200 150 l 1
 200 100 l 1
 400 100 l 1
 400 200 l 1
 350 200 l 1
 350 250 l 1
 300 250 l 1
 300 300 l 1
 150 300 l 1
 150 350 l 1
 100 350 l 1
 100 400 l 1
 50 400 l 1
 50 500 l 1
 100 500 l 1
 100 550 l 1
 150 550 l 1
 150 600 l 1
 250 600 l 1
 250 700 l 1
 350 700 l 1
 350 400 l 1
 400 400 l 1
 400 450 l 1
 450 450 l 1
 450 600 l 1
 550 600 l 1
 550 400 l 1
 500 400 l 1
 500 350 l 1
 450 350 l 1
 450 250 l 1
 500 250 l 1
 500 200 l 1
 550 200 l 1
 550 100 l 1
 500 100 l 1
 500 50 l 1
 450 50 l 1
 450 0 l 1
 150 0 l 1
 150 50 l 1
 100 50 l 1
 100 100 l 1
 50 100 l 1
EndSplineSet
EndChar

StartChar: uni1CB2
Encoding: 7346 7346 95
Width: 600
Flags: HW
LayerCount: 2
Fore
SplineSet
50 0 m 1
 50 100 l 1
 150 100 l 1
 150 150 l 1
 100 150 l 1
 100 200 l 1
 50 200 l 1
 50 600 l 1
 100 600 l 1
 100 650 l 1
 150 650 l 1
 150 700 l 1
 450 700 l 1
 450 650 l 1
 500 650 l 1
 500 600 l 1
 550 600 l 1
 550 200 l 1
 500 200 l 1
 500 150 l 1
 450 150 l 1
 450 100 l 1
 550 100 l 1
 550 0 l 1
 50 0 l 1
350 150 m 5
 350 200 l 1
 400 200 l 1
 400 250 l 1
 450 250 l 1
 450 550 l 1
 400 550 l 1
 400 600 l 1
 200 600 l 1
 200 550 l 1
 150 550 l 1
 150 250 l 1
 200 250 l 1
 200 200 l 1
 250 200 l 1
 250 150 l 5
 350 150 l 5
EndSplineSet
EndChar

StartChar: uni1CBE
Encoding: 7358 7358 96
Width: 600
Flags: HW
LayerCount: 2
Fore
SplineSet
550 700 m 1
 550 600 l 1
 450 600 l 1
 450 550 l 1
 500 550 l 1
 500 500 l 1
 550 500 l 1
 550 100 l 1
 500 100 l 1
 500 50 l 1
 450 50 l 1
 450 0 l 1
 150 0 l 1
 150 50 l 1
 100 50 l 1
 100 100 l 1
 50 100 l 1
 50 500 l 1
 100 500 l 1
 100 550 l 1
 150 550 l 1
 150 600 l 1
 50 600 l 1
 50 700 l 1
 550 700 l 1
250 550 m 5
 250 500 l 1
 200 500 l 1
 200 450 l 1
 150 450 l 1
 150 150 l 1
 200 150 l 1
 200 100 l 1
 400 100 l 1
 400 150 l 1
 450 150 l 1
 450 450 l 1
 400 450 l 1
 400 500 l 1
 350 500 l 1
 350 550 l 5
 250 550 l 5
EndSplineSet
EndChar

StartChar: uni2D12
Encoding: 11538 11538 97
Width: 600
Flags: HW
LayerCount: 2
Fore
SplineSet
450 -200 m 1
 150 -200 l 1
 150 -150 l 1
 100 -150 l 1
 100 -100 l 1
 50 -100 l 1
 50 500 l 1
 150 500 l 1
 150 400 l 1
 200 400 l 1
 200 450 l 1
 250 450 l 1
 250 500 l 1
 450 500 l 1
 450 450 l 1
 500 450 l 1
 500 400 l 1
 550 400 l 1
 550 100 l 1
 500 100 l 1
 500 50 l 1
 450 50 l 1
 450 0 l 1
 250 0 l 1
 250 50 l 1
 200 50 l 1
 200 100 l 1
 150 100 l 1
 150 -50 l 1
 200 -50 l 1
 200 -100 l 1
 450 -100 l 1
 450 -200 l 1
300 100 m 1
 400 100 l 1
 400 150 l 1
 450 150 l 1
 450 350 l 1
 400 350 l 1
 400 400 l 1
 300 400 l 1
 300 350 l 1
 250 350 l 1
 250 300 l 1
 200 300 l 1
 200 200 l 1
 250 200 l 1
 250 150 l 1
 300 150 l 1
 300 100 l 1
EndSplineSet
EndChar

StartChar: uni2D1F
Encoding: 11551 11551 98
Width: 600
Flags: HW
LayerCount: 2
Fore
SplineSet
350 400 m 1
 250 400 l 1
 250 300 l 1
 350 300 l 1
 350 400 l 1
50 400 m 1
 50 500 l 1
 550 500 l 1
 550 400 l 1
 500 400 l 1
 500 350 l 1
 450 350 l 1
 450 300 l 1
 400 300 l 1
 400 200 l 1
 450 200 l 1
 450 150 l 1
 500 150 l 1
 500 100 l 1
 550 100 l 1
 550 0 l 1
 450 0 l 1
 450 50 l 1
 400 50 l 1
 400 100 l 1
 350 100 l 1
 350 150 l 1
 250 150 l 1
 250 100 l 1
 200 100 l 1
 200 50 l 1
 150 50 l 1
 150 -200 l 1
 50 -200 l 1
 50 100 l 1
 100 100 l 1
 100 150 l 1
 150 150 l 1
 150 200 l 1
 200 200 l 1
 200 300 l 1
 150 300 l 1
 150 350 l 1
 100 350 l 1
 100 400 l 1
 50 400 l 1
EndSplineSet
EndChar

StartChar: four.alt
Encoding: 65554 -1 103
Width: 600
Flags: HW
LayerCount: 2
Fore
SplineSet
350 0 m 1
 350 200 l 1
 50 200 l 1
 50 400 l 1
 100 400 l 1
 100 450 l 1
 150 450 l 1
 150 500 l 1
 200 500 l 1
 200 550 l 1
 250 550 l 1
 250 600 l 1
 300 600 l 1
 300 650 l 1
 350 650 l 1
 350 700 l 1
 450 700 l 1
 450 300 l 1
 550 300 l 1
 550 200 l 1
 450 200 l 1
 450 0 l 1
 350 0 l 1
150 300 m 1
 350 300 l 1
 350 500 l 1
 300 500 l 1
 300 450 l 1
 250 450 l 1
 250 400 l 1
 200 400 l 1
 200 350 l 1
 150 350 l 1
 150 300 l 1
EndSplineSet
EndChar

